<svg width="45" height="45" viewBox="0 0 45 45" fill="none" xmlns="http://www.w3.org/2000/svg">
<path d="M37.2656 14.7656H7.73438C6.53906 14.7656 5.625 13.8516 5.625 12.6562C5.625 11.4609 6.53906 10.5469 7.73438 10.5469H37.2656C38.4609 10.5469 39.375 11.4609 39.375 12.6562C39.375 13.8516 38.4609 14.7656 37.2656 14.7656ZM37.2656 24.6094H7.73438C6.53906 24.6094 5.625 23.6953 5.625 22.5C5.625 21.3047 6.53906 20.3906 7.73438 20.3906H37.2656C38.4609 20.3906 39.375 21.3047 39.375 22.5C39.375 23.6953 38.4609 24.6094 37.2656 24.6094ZM37.2656 34.4531H7.73438C6.53906 34.4531 5.625 33.5391 5.625 32.3438C5.625 31.1484 6.53906 30.2344 7.73438 30.2344H37.2656C38.4609 30.2344 39.375 31.1484 39.375 32.3438C39.375 33.5391 38.4609 34.4531 37.2656 34.4531Z" fill="#444444"/>
</svg>
