<svg width="284" height="30" viewBox="0 0 284 30" fill="none" xmlns="http://www.w3.org/2000/svg">
<path d="M283.414 16.4142C284.195 15.6332 284.195 14.3668 283.414 13.5858L270.686 0.857864C269.905 0.0768156 268.639 0.0768156 267.858 0.857864C267.077 1.63891 267.077 2.90524 267.858 3.68629L279.172 15L267.858 26.3137C267.077 27.0948 267.077 28.3611 267.858 29.1421C268.639 29.9232 269.905 29.9232 270.686 29.1421L283.414 16.4142ZM1.97895 17C3.08352 17 3.97895 16.1046 3.97895 15C3.97895 13.8954 3.08352 13 1.97895 13L1.97895 17ZM16.8211 13C15.7165 13 14.8211 13.8954 14.8211 15C14.8211 16.1046 15.7165 17 16.8211 17V13ZM20.7789 17C21.8835 17 22.7789 16.1046 22.7789 15C22.7789 13.8954 21.8835 13 20.7789 13V17ZM35.6211 13C34.5165 13 33.6211 13.8954 33.6211 15C33.6211 16.1046 34.5165 17 35.6211 17V13ZM39.5789 17C40.6835 17 41.5789 16.1046 41.5789 15C41.5789 13.8954 40.6835 13 39.5789 13V17ZM54.421 13C53.3165 13 52.421 13.8954 52.421 15C52.421 16.1046 53.3165 17 54.421 17V13ZM58.3789 17C59.4835 17 60.3789 16.1046 60.3789 15C60.3789 13.8954 59.4835 13 58.3789 13V17ZM73.221 13C72.1165 13 71.221 13.8954 71.221 15C71.221 16.1046 72.1165 17 73.221 17V13ZM77.1789 17C78.2835 17 79.1789 16.1046 79.1789 15C79.1789 13.8954 78.2835 13 77.1789 13V17ZM92.021 13C90.9165 13 90.021 13.8954 90.021 15C90.021 16.1046 90.9165 17 92.021 17V13ZM95.9789 17C97.0835 17 97.9789 16.1046 97.9789 15C97.9789 13.8954 97.0835 13 95.9789 13V17ZM110.821 13C109.716 13 108.821 13.8954 108.821 15C108.821 16.1046 109.716 17 110.821 17V13ZM114.779 17C115.883 17 116.779 16.1046 116.779 15C116.779 13.8954 115.883 13 114.779 13V17ZM129.621 13C128.516 13 127.621 13.8954 127.621 15C127.621 16.1046 128.516 17 129.621 17V13ZM133.579 17C134.684 17 135.579 16.1046 135.579 15C135.579 13.8954 134.684 13 133.579 13V17ZM148.421 13C147.316 13 146.421 13.8954 146.421 15C146.421 16.1046 147.316 17 148.421 17V13ZM152.379 17C153.484 17 154.379 16.1046 154.379 15C154.379 13.8954 153.484 13 152.379 13V17ZM167.221 13C166.116 13 165.221 13.8954 165.221 15C165.221 16.1046 166.116 17 167.221 17V13ZM171.179 17C172.284 17 173.179 16.1046 173.179 15C173.179 13.8954 172.284 13 171.179 13V17ZM186.021 13C184.916 13 184.021 13.8954 184.021 15C184.021 16.1046 184.916 17 186.021 17V13ZM189.979 17C191.083 17 191.979 16.1046 191.979 15C191.979 13.8954 191.083 13 189.979 13V17ZM204.821 13C203.716 13 202.821 13.8954 202.821 15C202.821 16.1046 203.716 17 204.821 17V13ZM208.779 17C209.883 17 210.779 16.1046 210.779 15C210.779 13.8954 209.883 13 208.779 13V17ZM223.621 13C222.516 13 221.621 13.8954 221.621 15C221.621 16.1046 222.516 17 223.621 17V13ZM227.579 17C228.684 17 229.579 16.1046 229.579 15C229.579 13.8954 228.684 13 227.579 13V17ZM242.421 13C241.316 13 240.421 13.8954 240.421 15C240.421 16.1046 241.316 17 242.421 17V13ZM246.379 17C247.484 17 248.379 16.1046 248.379 15C248.379 13.8954 247.484 13 246.379 13V17ZM261.221 13C260.116 13 259.221 13.8954 259.221 15C259.221 16.1046 260.116 17 261.221 17V13ZM265.179 17C266.284 17 267.179 16.1046 267.179 15C267.179 13.8954 266.284 13 265.179 13V17ZM280.021 13C278.916 13 278.021 13.8954 278.021 15C278.021 16.1046 278.916 17 280.021 17V13ZM0 17H1.97895L1.97895 13H0L0 17ZM16.8211 17H20.7789V13L16.8211 13V17ZM35.6211 17L39.5789 17V13L35.6211 13V17ZM54.421 17H58.3789V13H54.421V17ZM73.221 17H77.1789V13L73.221 13V17ZM92.021 17L95.9789 17V13H92.021V17ZM110.821 17H114.779V13L110.821 13V17ZM129.621 17H133.579V13H129.621V17ZM148.421 17H152.379V13L148.421 13V17ZM167.221 17H171.179V13L167.221 13V17ZM186.021 17H189.979V13H186.021V17ZM204.821 17H208.779V13L204.821 13V17ZM223.621 17L227.579 17V13L223.621 13V17ZM242.421 17H246.379V13H242.421V17ZM261.221 17H265.179V13H261.221V17ZM280.021 17H282V13L280.021 13V17Z" fill="white" fill-opacity="0.5"/>
</svg>
