<svg width="63" height="62" viewBox="0 0 63 62" fill="none" xmlns="http://www.w3.org/2000/svg">
<path d="M45.9604 35.6252C45.8396 35.5673 41.3197 33.3415 40.5165 33.0524C40.1886 32.9347 39.8373 32.8197 39.4637 32.8197C38.8534 32.8197 38.3407 33.1239 37.9413 33.7213C37.4898 34.3925 36.123 35.9902 35.7006 36.4675C35.6455 36.5305 35.5702 36.6058 35.5251 36.6058C35.4846 36.6058 34.7851 36.3177 34.5734 36.2257C29.7247 34.1195 26.0443 29.0546 25.5397 28.2005C25.4676 28.0777 25.4646 28.022 25.464 28.022C25.4817 27.957 25.6448 27.7935 25.7289 27.7092C25.9751 27.4656 26.2418 27.1445 26.4999 26.8339C26.6221 26.6868 26.7445 26.5394 26.8646 26.4005C27.239 25.9649 27.4057 25.6267 27.599 25.235L27.7002 25.0315C28.1721 24.094 27.7691 23.3029 27.6388 23.0475C27.5319 22.8337 25.6234 18.2276 25.4205 17.7437C24.9326 16.5759 24.2878 16.0322 23.3918 16.0322C23.3087 16.0322 23.3918 16.0322 23.0432 16.0469C22.6186 16.0648 20.3067 16.3692 19.2845 17.0136C18.2005 17.697 16.3667 19.8754 16.3667 23.7065C16.3667 27.1546 18.5548 30.4102 19.4943 31.6484C19.5176 31.6796 19.5605 31.743 19.6227 31.834C23.2205 37.0883 27.7057 40.9822 32.2524 42.7985C36.6296 44.547 38.7024 44.7491 39.8808 44.7491H39.881C40.3762 44.7491 40.7726 44.7102 41.1222 44.6758L41.344 44.6547C42.8562 44.5206 46.1792 42.7987 46.9351 40.6982C47.5306 39.0437 47.6876 37.236 47.2914 36.58C47.0201 36.1339 46.5524 35.9095 45.9604 35.6252Z" fill="white"/>
<path d="M31.6339 0C14.8424 0 1.18145 13.5583 1.18145 30.2236C1.18145 35.6138 2.62396 40.89 5.35659 45.5078L0.126247 60.9363C0.0288182 61.224 0.101286 61.542 0.314058 61.7586C0.467649 61.9155 0.675993 62 0.888766 62C0.970292 62 1.05242 61.9877 1.13254 61.9622L17.2203 56.85C21.6227 59.2021 26.5984 60.4438 31.6341 60.4438C48.424 60.444 62.0836 46.8871 62.0836 30.2236C62.0836 13.5583 48.424 0 31.6339 0ZM31.6339 54.1481C26.8956 54.1481 22.3061 52.7799 18.3611 50.1912C18.2284 50.1041 18.0744 50.0594 17.9194 50.0594C17.8375 50.0594 17.7554 50.0718 17.6755 50.0972L9.61647 52.6589L12.2181 44.9836C12.3022 44.7352 12.2601 44.4612 12.1051 44.2495C9.10095 40.1446 7.5129 35.2947 7.5129 30.2236C7.5129 17.0299 18.3335 6.29582 31.6337 6.29582C44.9323 6.29582 55.7517 17.0299 55.7517 30.2236C55.7519 43.4157 44.9327 54.1481 31.6339 54.1481Z" fill="white"/>
</svg>
