<svg width="206" height="244" viewBox="0 0 206 244" fill="none" xmlns="http://www.w3.org/2000/svg">
<path d="M152.679 91.1417L54.8813 177.596C54.8813 177.596 20.4823 204.771 14.5 198C8.51768 191.229 40.8358 161.712 40.8358 161.712L138.634 75.257C138.634 75.257 166.606 47 175 56.5003C183.394 66.0006 152.679 91.1417 152.679 91.1417Z" stroke="white" stroke-width="3" stroke-miterlimit="10"/>
<path d="M173.918 111.594L76.12 198.048C76.12 198.048 41.721 225.223 35.7387 218.452C29.7564 211.682 62.0746 182.164 62.0746 182.164L159.873 95.7091C159.873 95.7091 187.845 67.4522 196.239 76.9524C204.633 86.4527 173.918 111.594 173.918 111.594Z" stroke="white" stroke-width="3" stroke-miterlimit="10"/>
<path d="M143.5 77.7711C151.823 69.1777 162.073 63.4999 163.5 66.5C164.927 69.5001 161.379 74.5004 151.5 83.7711C119 114.271 81 146 53.5 170.5C49.8586 172.323 32.5 189 30 184.5C27.5 180 40.505 171.458 47.5 163.771C77 136.771 120 98.7713 143.5 77.7711Z" fill="white" fill-opacity="0.2"/>
<path d="M164.739 98.2233C173.062 89.6298 183.312 83.9521 184.739 86.9521C186.166 89.9522 182.617 94.9526 172.739 104.223C140.239 134.724 102.239 166.452 74.7387 190.952C71.0973 192.775 53.7387 209.452 51.2387 204.952C48.7388 200.452 61.7437 191.91 68.7387 184.223C98.2387 157.223 141.239 119.223 164.739 98.2233Z" fill="white" fill-opacity="0.2"/>
<path d="M30.5 170.5L56 176.5V148.5L82 154V126L106.5 131V105L130.5 109.5V83L155.5 88.5L152.5 64.5" stroke="white" stroke-width="2" stroke-miterlimit="10" stroke-linejoin="round"/>
<path d="M52 191L77.5 197V169L103.5 174.5V146.5L128 151.5V125.5L152 130V103.5L177 109L174 84" stroke="white" stroke-width="2" stroke-miterlimit="10" stroke-linejoin="round"/>
</svg>
