<svg width="206" height="244" viewBox="0 0 206 244" fill="none" xmlns="http://www.w3.org/2000/svg">
<path d="M152.679 91.1417L54.8813 177.596C54.8813 177.596 20.4823 204.771 14.5 198C8.51768 191.229 40.8358 161.712 40.8358 161.712L138.634 75.257C138.634 75.257 166.606 47 175 56.5003C183.394 66.0006 152.679 91.1417 152.679 91.1417Z" stroke="white" stroke-width="3" stroke-miterlimit="10"/>
<path d="M173.918 111.594L76.12 198.048C76.12 198.048 41.721 225.223 35.7387 218.452C29.7564 211.682 62.0746 182.164 62.0746 182.164L159.873 95.7091C159.873 95.7091 187.845 67.4522 196.239 76.9524C204.633 86.4527 173.918 111.594 173.918 111.594Z" stroke="white" stroke-width="3" stroke-miterlimit="10"/>
<path d="M153.46 215.095C155.54 215.356 157.621 214.054 158.141 211.97C158.922 209.627 157.621 207.023 155.28 206.241L153.72 205.721C153.98 202.856 151.899 199.992 149.038 198.95L137.854 195.304C134.992 194.263 131.611 195.565 130.051 198.169L128.75 197.648C126.409 196.867 123.808 198.169 123.028 200.513C122.248 202.596 123.288 204.679 125.109 205.981C123.028 205.721 120.947 207.023 120.427 209.106C119.907 211.189 120.687 213.272 122.248 214.314C120.167 214.314 118.346 215.616 117.826 217.439C117.045 219.783 118.346 222.387 120.687 223.168L122.768 223.689C123.288 226.032 124.849 228.116 127.45 228.897L138.634 232.542C140.975 233.324 143.576 232.542 145.397 230.98L147.477 231.501C149.818 232.282 152.419 230.98 153.2 228.636C153.72 226.553 152.939 224.47 151.379 223.428C153.46 223.428 155.28 222.126 155.801 220.303C156.061 218.48 155.28 216.397 153.46 215.095Z" fill="white" stroke="white" stroke-width="3" stroke-miterlimit="10" stroke-linecap="round"/>
<path d="M65.8056 69.268C59.043 59.633 55.1415 47.6543 57.2223 36.1965C59.3031 24.7386 67.6263 14.062 78.8107 11.1976C82.192 10.4163 85.8334 10.4163 89.4748 10.6767C93.6364 10.9371 97.5379 11.9788 101.179 14.062C109.242 19.0097 117.826 34.634 116.005 44.0086C114.184 53.1228 106.121 64.4274 101.179 72.5C98.0581 77.4477 95 84 90 92C88.5 92 87.5 92 86 92C77.4167 82.6254 67.8864 72.3929 65.8056 69.268Z" stroke="white" stroke-width="3" stroke-miterlimit="10" stroke-linecap="round" stroke-linejoin="round"/>
<path d="M88.1743 96.871C88.9546 144.786 46.0379 66.9244 21.0682 87.7568C3.90154 102.6 9.36366 126.818 41.6162 154.941" stroke="white" stroke-width="3" stroke-miterlimit="10" stroke-linecap="round"/>
<path d="M144.356 196.867C148.518 196.346 157.101 164.576 134.732 167.181C108.462 170.045 85.5733 237.75 83.7526 196.606" stroke="white" stroke-width="3" stroke-miterlimit="10" stroke-linecap="round"/>
<path d="M68.9268 60.6746C64.7652 49.2168 63.7248 30.2072 74.9091 23.4366C86.0935 16.6661 93.1162 17.1869 102.48 26.3011C111.843 35.4153 100.399 53.3833 94.6768 63.7995C92.596 67.4452 91.5556 84.6319 86.6137 83.5903C82.7122 83.0695 70.2273 64.0599 68.9268 60.6746Z" fill="white" fill-opacity="0.2"/>
<path d="M143.5 77.7711C151.823 69.1777 162.073 63.4999 163.5 66.5C164.927 69.5001 161.379 74.5004 151.5 83.7711C119 114.271 81 146 53.5 170.5C49.8586 172.323 32.5 189 30 184.5C27.5 180 40.505 171.458 47.5 163.771C77 136.771 120 98.7713 143.5 77.7711Z" fill="white" fill-opacity="0.2"/>
<path d="M164.739 98.2233C173.062 89.6298 183.312 83.9521 184.739 86.9521C186.166 89.9522 182.617 94.9526 172.739 104.223C140.239 134.724 102.239 166.452 74.7387 190.952C71.0973 192.775 53.7387 209.452 51.2387 204.952C48.7388 200.452 61.7437 191.91 68.7387 184.223C98.2387 157.223 141.239 119.223 164.739 98.2233Z" fill="white" fill-opacity="0.2"/>
</svg>
